<?xml version="1.0" encoding="utf-8"?>
<svg version="1.1" xmlns:xlink="http://www.w3.org/1999/xlink" width="25px" height="25px" xmlns="http://www.w3.org/2000/svg">
  <g transform="matrix(1 0 0 1 -2100 -2050 )">
    <path d="M 2112.5 2050  C 2119.5 2050  2125 2055.5  2125 2062.5  C 2125 2069.5  2119.5 2075  2112.5 2075  C 2105.5 2075  2100 2069.5  2100 2062.5  C 2100 2055.5  2105.5 2050  2112.5 2050  Z " fill-rule="nonzero" fill="#ffffff" stroke="none" />
    <path d="M 2112.5 2050.5  C 2119.22 2050.5  2124.5 2055.78  2124.5 2062.5  C 2124.5 2069.22  2119.22 2074.5  2112.5 2074.5  C 2105.78 2074.5  2100.5 2069.22  2100.5 2062.5  C 2100.5 2055.78  2105.78 2050.5  2112.5 2050.5  Z " stroke-width="1" stroke="#797979" fill="none" />
  </g>
</svg>