<?xml version="1.0" encoding="utf-8"?>
<svg version="1.1" xmlns:xlink="http://www.w3.org/1999/xlink" width="176px" height="130px" xmlns="http://www.w3.org/2000/svg">
  <g transform="matrix(1 0 0 1 -2100 -2129 )">
    <path d="M 2100 2129  L 2276 2129  L 2276 2259  L 2100 2259  L 2100 2129  " fill-rule="nonzero" fill="#cccccc" stroke="none" />
    <path d="M 2109 2138  L 2267 2138  L 2267 2250  L 2109 2250  L 2109 2138  " fill-rule="nonzero" fill="#ffffff" stroke="none" />
    <path d="M 2201.27 2168  C 2195.81 2168  2191.52 2163.71  2191.52 2158.25  C 2191.52 2152.79  2195.81 2148.5  2201.27 2148.5  C 2206.73 2148.5  2211.02 2152.79  2211.02 2158.25  C 2211.02 2163.71  2206.73 2168  2201.27 2168  " fill-rule="nonzero" fill="#cccccc" stroke="none" />
    <path d="M 2113 2247  L 2113 2189.25  L 2150.75 2163  L 2203.6 2200.46590909091  L 2233.8 2178.75  L 2264 2200.46590909091  L 2264 2247  L 2113 2247  " fill-rule="nonzero" fill="#169bd5" stroke="none" />
  </g>
</svg>