<?xml version="1.0" encoding="utf-8"?>
<svg version="1.1" xmlns:xlink="http://www.w3.org/1999/xlink" width="12px" height="12px" viewBox="752 848  12 12" xmlns="http://www.w3.org/2000/svg">
  <path d="M 758 848  C 761.36 848  764 850.64  764 854  C 764 857.36  761.36 860  758 860  C 754.64 860  752 857.36  752 854  C 752 850.64  754.64 848  758 848  Z " fill-rule="nonzero" fill="#ffffff" stroke="none" />
  <path d="M 758 848.5  C 761.08 848.5  763.5 850.92  763.5 854  C 763.5 857.08  761.08 859.5  758 859.5  C 754.92 859.5  752.5 857.08  752.5 854  C 752.5 850.92  754.92 848.5  758 848.5  Z " stroke-width="1" stroke="#797979" fill="none" />
  <path d="M 758 857  C 756.32 857  755 855.68  755 854  C 755 852.32  756.32 851  758 851  C 759.68 851  761 852.32  761 854  C 761 855.68  759.68 857  758 857  " fill-rule="nonzero" fill="#797979" stroke="none" />
</svg>