<?xml version="1.0" encoding="utf-8"?>
<svg version="1.1" xmlns:xlink="http://www.w3.org/1999/xlink" width="310px" height="180px" xmlns="http://www.w3.org/2000/svg">
  <defs>
    <mask fill="white" id="clip15">
      <path d="M 48 190  C 42.45 190  38 185.55  38 180  L 38 30  C 38 24.45  42.45 20  48 20  L 328 20  C 333.55 20  338 24.45  338 30  L 338 180  C 338 185.55  333.55 190  328 190  " fill-rule="evenodd" />
    </mask>
    <filter x="38px" y="20px" width="310px" height="180px" filterUnits="userSpaceOnUse" id="filter16">
      <feOffset dx="5" dy="5" in="SourceAlpha" result="shadowOffsetInner" />
      <feGaussianBlur stdDeviation="2.5" in="shadowOffsetInner" result="shadowGaussian" />
      <feComposite in2="shadowGaussian" operator="atop" in="SourceAlpha" result="shadowComposite" />
      <feColorMatrix type="matrix" values="0 0 0 0 0  0 0 0 0 0  0 0 0 0 0  0 0 0 0.349019607843137 0  " in="shadowComposite" />
    </filter>
    <g id="widget17">
      <path d="M 38 20  L 338 20  L 338 190  L 38 190  L 38 20  " fill-rule="nonzero" fill="#cccccc" stroke="none" mask="url(#clip15)" />
      <path d="M 50 32  L 326 32  L 326 178  L 50 178  L 50 32  " fill-rule="nonzero" fill="#ffffff" stroke="none" mask="url(#clip15)" />
      <path d="M 206.75 71  C 199.61 71  194 65.39  194 58.25  C 194 51.11  199.61 45.5  206.75 45.5  C 213.89 45.5  219.5 51.11  219.5 58.25  C 219.5 65.39  213.89 71  206.75 71  " fill-rule="nonzero" fill="#cccccc" stroke="none" mask="url(#clip15)" />
      <path d="M 55 174  L 55 98.65  L 121.75 64.4  L 215.2 127.42  L 268.6 84.95  L 322 127.42  L 322 174  L 55 174  " fill-rule="nonzero" fill="#169bd5" stroke="none" mask="url(#clip15)" />
    </g>
  </defs>
  <g transform="matrix(1 0 0 1 -38 -20 )">
    <use xlink:href="#widget17" filter="url(#filter16)" />
    <use xlink:href="#widget17" />
  </g>
</svg>