<?xml version="1.0" encoding="utf-8"?>
<svg version="1.1" xmlns:xlink="http://www.w3.org/1999/xlink" width="12px" height="12px" viewBox="102 1720  12 12" xmlns="http://www.w3.org/2000/svg">
  <path d="M 108 1720  C 111.36 1720  114 1722.64  114 1726  C 114 1729.36  111.36 1732  108 1732  C 104.64 1732  102 1729.36  102 1726  C 102 1722.64  104.64 1720  108 1720  Z " fill-rule="nonzero" fill="#ffffff" stroke="none" />
  <path d="M 108 1720.5  C 111.08 1720.5  113.5 1722.92  113.5 1726  C 113.5 1729.08  111.08 1731.5  108 1731.5  C 104.92 1731.5  102.5 1729.08  102.5 1726  C 102.5 1722.92  104.92 1720.5  108 1720.5  Z " stroke-width="1" stroke="#797979" fill="none" />
  <path d="M 108 1729  C 106.32 1729  105 1727.68  105 1726  C 105 1724.32  106.32 1723  108 1723  C 109.68 1723  111 1724.32  111 1726  C 111 1727.68  109.68 1729  108 1729  " fill-rule="nonzero" fill="#797979" stroke="none" />
</svg>