<?xml version="1.0" encoding="utf-8"?>
<svg version="1.1" xmlns:xlink="http://www.w3.org/1999/xlink" width="100px" height="100px" xmlns="http://www.w3.org/2000/svg">
  <g transform="matrix(1 0 0 1 -140 -1369 )">
    <path d="M 190 1369  C 218 1369  240 1391  240 1419  C 240 1447  218 1469  190 1469  C 162 1469  140 1447  140 1419  C 140 1391  162 1369  190 1369  Z " fill-rule="nonzero" fill="#ffffff" stroke="none" />
    <path d="M 190 1369.5  C 217.72 1369.5  239.5 1391.28  239.5 1419  C 239.5 1446.72  217.72 1468.5  190 1468.5  C 162.28 1468.5  140.5 1446.72  140.5 1419  C 140.5 1391.28  162.28 1369.5  190 1369.5  Z " stroke-width="1" stroke="#797979" fill="none" />
  </g>
</svg>