<?xml version="1.0" encoding="utf-8"?>
<svg version="1.1" xmlns:xlink="http://www.w3.org/1999/xlink" width="12px" height="12px" viewBox="102 648  12 12" xmlns="http://www.w3.org/2000/svg">
  <path d="M 108 648  C 111.36 648  114 650.64  114 654  C 114 657.36  111.36 660  108 660  C 104.64 660  102 657.36  102 654  C 102 650.64  104.64 648  108 648  Z " fill-rule="nonzero" fill="#ffffff" stroke="none" />
  <path d="M 108 648.5  C 111.08 648.5  113.5 650.92  113.5 654  C 113.5 657.08  111.08 659.5  108 659.5  C 104.92 659.5  102.5 657.08  102.5 654  C 102.5 650.92  104.92 648.5  108 648.5  Z " stroke-width="1" stroke="#797979" fill="none" />
  <path d="M 108 657  C 106.32 657  105 655.68  105 654  C 105 652.32  106.32 651  108 651  C 109.68 651  111 652.32  111 654  C 111 655.68  109.68 657  108 657  " fill-rule="nonzero" fill="#797979" stroke="none" />
</svg>