<?xml version="1.0" encoding="utf-8"?>
<svg version="1.1" xmlns:xlink="http://www.w3.org/1999/xlink" width="40px" height="40px" xmlns="http://www.w3.org/2000/svg">
  <g transform="matrix(1 0 0 1 -1172 -550 )">
    <path d="M 1192 550  C 1203.2 550  1212 558.8  1212 570  C 1212 581.2  1203.2 590  1192 590  C 1180.8 590  1172 581.2  1172 570  C 1172 558.8  1180.8 550  1192 550  Z " fill-rule="nonzero" fill="#ffffff" stroke="none" />
    <path d="M 1192 550.5  C 1202.92 550.5  1211.5 559.08  1211.5 570  C 1211.5 580.92  1202.92 589.5  1192 589.5  C 1181.08 589.5  1172.5 580.92  1172.5 570  C 1172.5 559.08  1181.08 550.5  1192 550.5  Z " stroke-width="1" stroke="#797979" fill="none" />
  </g>
</svg>