<?xml version="1.0" encoding="utf-8"?>
<svg version="1.1" xmlns:xlink="http://www.w3.org/1999/xlink" width="120px" height="120px" xmlns="http://www.w3.org/2000/svg">
  <g transform="matrix(1 0 0 1 -4331 -877 )">
    <path d="M 4332 887  A 9 9 0 0 1 4341 878 L 4441 878  A 9 9 0 0 1 4450 887 L 4450 987  A 9 9 0 0 1 4441 996 L 4341 996  A 9 9 0 0 1 4332 987 L 4332 887  Z " fill-rule="nonzero" fill="#ffffff" stroke="none" />
    <path d="M 4331.5 887  A 9.5 9.5 0 0 1 4341 877.5 L 4441 877.5  A 9.5 9.5 0 0 1 4450.5 887 L 4450.5 987  A 9.5 9.5 0 0 1 4441 996.5 L 4341 996.5  A 9.5 9.5 0 0 1 4331.5 987 L 4331.5 887  Z " stroke-width="1" stroke-dasharray="3,1" stroke="#797979" fill="none" stroke-dashoffset="0.5" />
  </g>
</svg>