<?xml version="1.0" encoding="utf-8"?>
<svg version="1.1" xmlns:xlink="http://www.w3.org/1999/xlink" width="145px" height="145px" xmlns="http://www.w3.org/2000/svg">
  <g transform="matrix(1 0 0 1 -600 -285 )">
    <path d="M 672.5 285  C 713.1 285  745 316.9  745 357.5  C 745 398.1  713.1 430  672.5 430  C 631.9 430  600 398.1  600 357.5  C 600 316.9  631.9 285  672.5 285  Z " fill-rule="nonzero" fill="#ffffff" stroke="none" />
    <path d="M 672.5 285.5  C 712.82 285.5  744.5 317.18  744.5 357.5  C 744.5 397.82  712.82 429.5  672.5 429.5  C 632.18 429.5  600.5 397.82  600.5 357.5  C 600.5 317.18  632.18 285.5  672.5 285.5  Z " stroke-width="1" stroke="#797979" fill="none" />
  </g>
</svg>