<?xml version="1.0" encoding="utf-8"?>
<svg version="1.1" xmlns:xlink="http://www.w3.org/1999/xlink" width="38px" height="38px" xmlns="http://www.w3.org/2000/svg">
  <g>
    <path d="M 31.3203125 16.10546875  C 31.6171875 15.80859375  31.765625 15.4375  31.765625 14.9921875  C 31.765625 14.5303819444444  31.6171875 14.1510416666667  31.3203125 13.8541666666667  L 29.0690104166667 11.6276041666667  C 28.7556423611111 11.3142361111111  28.3845486111111 11.1575520833333  27.9557291666667 11.1575520833333  C 27.5269097222222 11.1575520833333  27.1558159722222 11.3142361111111  26.8424479166667 11.6276041666667  L 16.7486979166667 21.6966145833333  L 11.1575520833333 16.10546875  C 10.8441840277778 15.7921006944444  10.4730902777778 15.6354166666667  10.0442708333333 15.6354166666667  C 9.61545138888889 15.6354166666667  9.24435763888889 15.7921006944444  8.93098958333333 16.10546875  L 6.6796875 18.33203125  C 6.3828125 18.62890625  6.234375 19.0082465277778  6.234375 19.4700520833333  C 6.234375 19.9153645833333  6.3828125 20.2864583333333  6.6796875 20.5833333333333  L 15.6354166666667 29.5390625  C 15.9487847222222 29.8524305555556  16.3198784722222 30.0091145833333  16.7486979166667 30.0091145833333  C 17.1940104166667 30.0091145833333  17.5733506944444 29.8524305555556  17.88671875 29.5390625  L 31.3203125 16.10546875  Z M 35.4518229166667 9.462890625  C 37.1506076388889 12.3739149305556  38 15.5529513888889  38 19  C 38 22.4470486111111  37.1506076388889 25.6260850694444  35.4518229166667 28.537109375  C 33.7530381944444 31.4481336805556  31.4481336805556 33.7530381944444  28.537109375 35.4518229166667  C 25.6260850694444 37.1506076388889  22.4470486111111 38  19 38  C 15.5529513888889 38  12.3739149305556 37.1506076388889  9.462890625 35.4518229166667  C 6.55186631944444 33.7530381944444  4.24696180555556 31.4481336805556  2.54817708333333 28.537109375  C 0.849392361111111 25.6260850694444  0 22.4470486111111  0 19  C 0 15.5529513888889  0.849392361111111 12.3739149305556  2.54817708333333 9.462890625  C 4.24696180555556 6.55186631944444  6.55186631944444 4.24696180555555  9.462890625 2.54817708333333  C 12.3739149305556 0.849392361111108  15.5529513888889 0  19 0  C 22.4470486111111 0  25.6260850694444 0.849392361111108  28.537109375 2.54817708333333  C 31.4481336805556 4.24696180555555  33.7530381944444 6.55186631944444  35.4518229166667 9.462890625  Z " fill-rule="nonzero" fill="#52df2b" stroke="none" />
  </g>
</svg>