<?xml version="1.0" encoding="utf-8"?>
<svg version="1.1" xmlns:xlink="http://www.w3.org/1999/xlink" width="120px" height="120px" xmlns="http://www.w3.org/2000/svg">
  <g transform="matrix(1 0 0 1 -4140 -877 )">
    <path d="M 4142 887  A 8 8 0 0 1 4150 879 L 4250 879  A 8 8 0 0 1 4258 887 L 4258 987  A 8 8 0 0 1 4250 995 L 4150 995  A 8 8 0 0 1 4142 987 L 4142 887  Z " fill-rule="nonzero" fill="#ffffff" stroke="none" />
    <path d="M 4141 887  A 9 9 0 0 1 4150 878 L 4250 878  A 9 9 0 0 1 4259 887 L 4259 987  A 9 9 0 0 1 4250 996 L 4150 996  A 9 9 0 0 1 4141 987 L 4141 887  Z " stroke-width="2" stroke-dasharray="6,2" stroke="#bbbbbb" fill="none" />
  </g>
</svg>