<?xml version="1.0" encoding="utf-8"?>
<svg version="1.1" xmlns:xlink="http://www.w3.org/1999/xlink" width="377px" height="520px" xmlns="http://www.w3.org/2000/svg">
  <g transform="matrix(1 0 0 1 -1200 -210 )">
    <path d="M 0 520  L 0 0  L 377 0  L 377 520  L 0 520  Z M 149 43.5  C 149 26.98  136.02 14  119.5 14  C 102.98 14  90 26.98  90 43.5  C 90 60.02  102.98 73  119.5 73  C 136.02 73  149 60.02  149 43.5  Z M 220 155  C 220 171.8  233.2 185  250 185  C 266.8 185  280 171.8  280 155  C 280 138.2  266.8 125  250 125  C 233.2 125  220 138.2  220 155  Z " fill-rule="nonzero" fill="#080707" stroke="none" fill-opacity="0.803921568627451" transform="matrix(1 0 0 1 1200 210 )" />
  </g>
</svg>