<?xml version="1.0" encoding="utf-8"?>
<svg version="1.1" xmlns:xlink="http://www.w3.org/1999/xlink" width="40px" height="40px" xmlns="http://www.w3.org/2000/svg">
  <defs>
    <filter x="1372px" y="276px" width="40px" height="40px" filterUnits="userSpaceOnUse" id="filter110">
      <feOffset dx="1" dy="1" in="SourceAlpha" result="shadowOffsetInner" />
      <feGaussianBlur stdDeviation="2.5" in="shadowOffsetInner" result="shadowGaussian" />
      <feComposite in2="shadowGaussian" operator="atop" in="SourceAlpha" result="shadowComposite" />
      <feColorMatrix type="matrix" values="0 0 0 0 0  0 0 0 0 0  0 0 0 0 0  0 0 0 0.698039215686274 0  " in="shadowComposite" />
    </filter>
    <g id="widget111">
      <path d="M 1391 280  C 1399.4 280  1406 286.6  1406 295  C 1406 303.4  1399.4 310  1391 310  C 1382.6 310  1376 303.4  1376 295  C 1376 286.6  1382.6 280  1391 280  Z " fill-rule="nonzero" fill="#009dd9" stroke="none" />
      <path d="M 1391 280.5  C 1399.12 280.5  1405.5 286.88  1405.5 295  C 1405.5 303.12  1399.12 309.5  1391 309.5  C 1382.88 309.5  1376.5 303.12  1376.5 295  C 1376.5 286.88  1382.88 280.5  1391 280.5  Z " stroke-width="1" stroke="#ffffff" fill="none" />
    </g>
  </defs>
  <g transform="matrix(1 0 0 1 -1372 -276 )">
    <use xlink:href="#widget111" filter="url(#filter110)" />
    <use xlink:href="#widget111" />
  </g>
</svg>