<?xml version="1.0" encoding="utf-8"?>
<svg version="1.1" xmlns:xlink="http://www.w3.org/1999/xlink" width="12px" height="12px" viewBox="312 358  12 12" xmlns="http://www.w3.org/2000/svg">
  <path d="M 318 358  C 321.36 358  324 360.64  324 364  C 324 367.36  321.36 370  318 370  C 314.64 370  312 367.36  312 364  C 312 360.64  314.64 358  318 358  Z " fill-rule="nonzero" fill="#ffffff" stroke="none" />
  <path d="M 318 358.5  C 321.08 358.5  323.5 360.92  323.5 364  C 323.5 367.08  321.08 369.5  318 369.5  C 314.92 369.5  312.5 367.08  312.5 364  C 312.5 360.92  314.92 358.5  318 358.5  Z " stroke-width="1" stroke="#797979" fill="none" />
  <path d="M 318 367  C 316.32 367  315 365.68  315 364  C 315 362.32  316.32 361  318 361  C 319.68 361  321 362.32  321 364  C 321 365.68  319.68 367  318 367  " fill-rule="nonzero" fill="#797979" stroke="none" />
</svg>