<?xml version="1.0" encoding="utf-8"?>
<svg version="1.1" xmlns:xlink="http://www.w3.org/1999/xlink" width="43px" height="24px" xmlns="http://www.w3.org/2000/svg">
  <g transform="matrix(1 0 0 1 -133 -767 )">
    <path d="M 133 767  L 176 767  L 176 791  L 133 791  L 133 767  " fill-rule="nonzero" fill="#cccccc" stroke="none" />
    <path d="M 135 769  L 174 769  L 174 789  L 135 789  L 135 769  " fill-rule="nonzero" fill="#ffffff" stroke="none" />
    <path d="M 157.16 774.2  C 156.152 774.2  155.36 773.408  155.36 772.4  C 155.36 771.392  156.152 770.6  157.16 770.6  C 158.168 770.6  158.96 771.392  158.96 772.4  C 158.96 773.408  158.168 774.2  157.16 774.2  " fill-rule="nonzero" fill="#cccccc" stroke="none" />
    <path d="M 136 789  L 136 778.55  L 145.5 773.8  L 158.8 782.637209302326  L 166.4 776.65  L 174 782.637209302326  L 174 789  L 136 789  " fill-rule="nonzero" fill="#169bd5" stroke="none" />
  </g>
</svg>