<?xml version="1.0" encoding="utf-8"?>
<svg version="1.1" xmlns:xlink="http://www.w3.org/1999/xlink" width="12px" height="12px" viewBox="200 123  12 12" xmlns="http://www.w3.org/2000/svg">
  <path d="M 206 123  C 209.36 123  212 125.64  212 129  C 212 132.36  209.36 135  206 135  C 202.64 135  200 132.36  200 129  C 200 125.64  202.64 123  206 123  Z " fill-rule="nonzero" fill="#ffffff" stroke="none" />
  <path d="M 206 123.5  C 209.08 123.5  211.5 125.92  211.5 129  C 211.5 132.08  209.08 134.5  206 134.5  C 202.92 134.5  200.5 132.08  200.5 129  C 200.5 125.92  202.92 123.5  206 123.5  Z " stroke-width="1" stroke="#797979" fill="none" />
  <path d="M 206 132  C 204.32 132  203 130.68  203 129  C 203 127.32  204.32 126  206 126  C 207.68 126  209 127.32  209 129  C 209 130.68  207.68 132  206 132  " fill-rule="nonzero" fill="#797979" stroke="none" />
</svg>