<?xml version="1.0" encoding="utf-8"?>
<svg version="1.1" xmlns:xlink="http://www.w3.org/1999/xlink" width="25px" height="18px" xmlns="http://www.w3.org/2000/svg">
  <g transform="matrix(1 0 0 1 -1132 -551 )">
    <path d="M 13.6838085539715 17.0516129032258  C 13.0643245078072 17.6838709677419  12.6697216564834 18  12.5 18  C 12.3302783435166 18  11.9356754921928 17.6838709677419  11.3161914460285 17.0516129032258  C 10.6967073998642 16.4193548387097  10.3869653767821 16.0172043010753  10.3869653767821 15.8451612903226  C 10.3869653767821 15.5698924731183  10.6521554650373 15.3376344086022  11.1825356415479 15.1483870967742  C 11.7129158180584 14.9591397849462  12.1520706042091 14.8645161290323  12.5 14.8645161290323  C 12.8479293957909 14.8645161290323  13.2870841819416 14.9591397849462  13.8174643584521 15.1483870967742  C 14.3478445349627 15.3376344086022  14.6130346232179 15.5698924731183  14.6130346232179 15.8451612903226  C 14.6130346232179 16.0172043010753  14.3032926001358 16.4193548387097  13.6838085539715 17.0516129032258  Z M 17.1270366598778 13.5354838709677  C 16.4863374066531 14.1806451612903  16.0896130346232 14.5032258064516  15.9368635437882 14.5032258064516  C 15.9198913781399 14.5032258064516  15.7501697216565 14.3956989247312  15.4276985743381 14.1806451612903  C 15.1052274270197 13.9655913978495  14.6745587236931 13.7505376344086  14.1356924643585 13.5354838709677  C 13.5968262050238 13.3204301075269  13.0515953835709 13.2129032258065  12.5 13.2129032258065  C 11.9484046164291 13.2129032258065  11.4031737949762 13.3204301075269  10.8643075356415 13.5354838709677  C 10.3254412763069 13.7505376344086  9.89689409368635 13.9655913978495  9.57866598778004 14.1806451612903  C 9.26043788187373 14.3956989247312  9.08859470468432 14.5032258064516  9.06313645621181 14.5032258064516  C 8.91038696537678 14.5032258064516  8.51366259334691 14.1806451612903  7.8729633401222 13.5354838709677  C 7.23226408689749 12.8903225806452  6.91191446028513 12.4903225806452  6.91191446028513 12.3354838709677  C 6.91191446028513 12.2236559139785  6.95434487440598 12.1247311827957  7.03920570264766 12.0387096774194  C 7.70112016293279 11.3763440860215  8.53275627970129 10.8559139784946  9.53411405295316 10.4774193548387  C 10.535471826205 10.0989247311828  11.5241004752206 9.90967741935484  12.5 9.90967741935484  C 13.4758995247794 9.90967741935484  14.464528173795 10.0989247311828  15.4658859470468 10.4774193548387  C 16.4672437202987 10.8559139784946  17.2988798370672 11.3763440860215  17.9607942973523 12.0387096774194  C 18.045655125594 12.1247311827957  18.0880855397149 12.2236559139785  18.0880855397149 12.3354838709677  C 18.0880855397149 12.4903225806452  17.7677359131025 12.8903225806452  17.1270366598778 13.5354838709677  Z M 20.5829938900204 10.0258064516129  C 19.9465376782077 10.6709677419355  19.556177868296 10.9935483870968  19.4119144602851 10.9935483870968  C 19.3185675492193 10.9935483870968  19.2209775967413 10.9591397849462  19.1191446028513 10.8903225806452  C 17.9650373387644 9.98709677419355  16.8957909029192 9.32258064516129  15.9114052953157 8.89677419354839  C 14.9270196877122 8.47096774193548  13.7898845892736 8.25806451612903  12.5 8.25806451612903  C 11.7786829599457 8.25806451612903  11.0552443991853 8.35268817204301  10.3296843177189 8.54193548387097  C 9.60412423625255 8.73118279569892  8.971911065852 8.95913978494623  8.43304480651731 9.2258064516129  C 7.89417854718262 9.49247311827957  7.41259334691107 9.75913978494624  6.98828920570265 10.0258064516129  C 6.56398506449423 10.2924731182796  6.22878479293958 10.5204301075269  5.9826883910387 10.7096774193548  C 5.73659198913781 10.8989247311828  5.6050577053632 10.9935483870968  5.58808553971487 10.9935483870968  C 5.44382213170401 10.9935483870968  5.05346232179226 10.6709677419355  4.41700610997963 10.0258064516129  C 3.78054989816701 9.38064516129032  3.46232179226069 8.98064516129032  3.46232179226069 8.8258064516129  C 3.46232179226069 8.72258064516129  3.50475220638153 8.62795698924731  3.58961303462322 8.54193548387097  C 4.70977596741344 7.40645161290322  6.06754921928038 6.5247311827957  7.66293279022403 5.89677419354839  C 9.25831636116769 5.26881720430107  10.8706720977597 4.95483870967742  12.5 4.95483870967742  C 14.1293279022403 4.95483870967742  15.7416836388323 5.26881720430107  17.337067209776 5.89677419354839  C 18.9324507807196 6.5247311827957  20.2902240325866 7.40645161290322  21.4103869653768 8.54193548387097  C 21.4952477936185 8.62795698924731  21.5376782077393 8.72258064516129  21.5376782077393 8.8258064516129  C 21.5376782077393 8.98064516129032  21.219450101833 9.38064516129032  20.5829938900204 10.0258064516129  Z M 24.0389511201629 6.52903225806452  C 23.3982518669382 7.1741935483871  23.0057705363204 7.49677419354839  22.8615071283096 7.49677419354839  C 22.7681602172437 7.49677419354839  22.6748133061779 7.45806451612903  22.581466395112 7.38064516129032  C 21.0624575695859 6.03010752688172  19.4861676849966 5.01290322580645  17.8525967413442 4.32903225806452  C 16.2190257976918 3.64516129032258  14.4348268839104 3.30322580645161  12.5 3.30322580645161  C 10.5651731160896 3.30322580645161  8.78097420230822 3.64516129032258  7.1474032586558 4.32903225806452  C 5.5138323150034 5.01290322580645  3.93754243041412 6.03010752688172  2.41853360488798 7.38064516129032  C 2.32518669382213 7.45806451612903  2.23183978275628 7.49677419354839  2.13849287169043 7.49677419354839  C 1.99422946367957 7.49677419354839  1.60174813306178 7.1741935483871  0.961048879837067 6.52903225806452  C 0.320349626612356 5.88387096774194  0 5.48387096774194  0 5.32903225806452  C 0 5.21720430107527  0.0424304141208419 5.11827956989247  0.127291242362525 5.03225806451613  C 1.71418873048201 3.43225806451613  3.60234215885947 2.19354838709677  5.79175152749491 1.31612903225806  C 7.98116089613035 0.438709677419354  10.2172437202987 0  12.5 0  C 14.7827562797013 0  17.0188391038697 0.438709677419354  19.2082484725051 1.31612903225806  C 21.3976578411405 2.19354838709677  23.285811269518 3.43225806451613  24.8727087576375 5.03225806451613  C 24.9575695858792 5.11827956989247  25 5.21720430107527  25 5.32903225806452  C 25 5.48387096774194  24.6796503733876 5.88387096774194  24.0389511201629 6.52903225806452  Z " fill-rule="nonzero" fill="#1f8aee" stroke="none" transform="matrix(1 0 0 1 1132 551 )" />
  </g>
</svg>