<?xml version="1.0" encoding="utf-8"?>
<svg version="1.1" xmlns:xlink="http://www.w3.org/1999/xlink" width="70px" height="38px" xmlns="http://www.w3.org/2000/svg">
  <defs>
    <mask fill="white" id="clip647">
      <path d="M 0 27.8916256157635  L 0 3.93103448275862  C 0 1.72965517241379  2.156 0  4.9 0  L 65.1 0  C 67.844 0  70 1.72965517241379  70 3.93103448275862  L 70 27.8916256157635  C 70 30.0930049261084  67.844 31.8226600985222  65.1 31.8226600985222  L 28 31.8226600985222  L 18.6666666666667 38  L 16.8 31.8226600985222  L 4.9 31.8226600985222  C 2.156 31.8226600985222  0 30.0930049261084  0 27.8916256157635  Z " fill-rule="evenodd" />
    </mask>
  </defs>
  <g transform="matrix(1 0 0 1 -268 -187 )">
    <path d="M 0 27.8916256157635  L 0 3.93103448275862  C 0 1.72965517241379  2.156 0  4.9 0  L 65.1 0  C 67.844 0  70 1.72965517241379  70 3.93103448275862  L 70 27.8916256157635  C 70 30.0930049261084  67.844 31.8226600985222  65.1 31.8226600985222  L 28 31.8226600985222  L 18.6666666666667 38  L 16.8 31.8226600985222  L 4.9 31.8226600985222  C 2.156 31.8226600985222  0 30.0930049261084  0 27.8916256157635  Z " fill-rule="nonzero" fill="#ffc220" stroke="none" transform="matrix(1 0 0 1 268 187 )" />
    <path d="M 0 27.8916256157635  L 0 3.93103448275862  C 0 1.72965517241379  2.156 0  4.9 0  L 65.1 0  C 67.844 0  70 1.72965517241379  70 3.93103448275862  L 70 27.8916256157635  C 70 30.0930049261084  67.844 31.8226600985222  65.1 31.8226600985222  L 28 31.8226600985222  L 18.6666666666667 38  L 16.8 31.8226600985222  L 4.9 31.8226600985222  C 2.156 31.8226600985222  0 30.0930049261084  0 27.8916256157635  Z " stroke-width="2" stroke="#ffffff" fill="none" transform="matrix(1 0 0 1 268 187 )" mask="url(#clip647)" />
  </g>
</svg>