<?xml version="1.0" encoding="utf-8"?>
<svg version="1.1" xmlns:xlink="http://www.w3.org/1999/xlink" width="20px" height="26px" xmlns="http://www.w3.org/2000/svg">
  <g transform="matrix(1 0 0 1 -38 -228 )">
    <path d="M 5.55555555555556 13  L 18.3333333333333 13  C 18.7962962962963 13  19.1898148148148 13.1579861111111  19.5138888888889 13.4739583333333  C 19.837962962963 13.7899305555556  20 14.1736111111111  20 14.625  L 20 24.375  C 20 24.8263888888889  19.837962962963 25.2100694444444  19.5138888888889 25.5260416666667  C 19.1898148148148 25.8420138888889  18.7962962962963 26  18.3333333333333 26  L 1.66666666666667 26  C 1.2037037037037 26  0.810185185185185 25.8420138888889  0.486111111111111 25.5260416666667  C 0.162037037037037 25.2100694444444  0 24.8263888888889  0 24.375  L 0 14.625  C 0 14.1736111111111  0.162037037037037 13.7899305555556  0.486111111111111 13.4739583333333  C 0.810185185185185 13.1579861111111  1.2037037037037 13  1.66666666666667 13  L 2.22222222222222 13  L 2.22222222222222 7.58333333333333  C 2.22222222222222 5.49565972222222  2.98321759259259 3.70985243055555  4.50520833333333 2.22591145833333  C 6.02719907407407 0.741970486111113  7.8587962962963 0  10 0  C 12.1412037037037 0  13.9728009259259 0.741970486111113  15.4947916666667 2.22591145833333  C 17.0167824074074 3.70985243055555  17.7777777777778 5.49565972222222  17.7777777777778 7.58333333333333  C 17.7777777777778 7.87673611111111  17.6678240740741 8.13064236111111  17.4479166666667 8.34505208333333  C 17.2280092592593 8.55946180555555  16.9675925925926 8.66666666666667  16.6666666666667 8.66666666666667  L 15.5555555555556 8.66666666666667  C 15.2546296296296 8.66666666666667  14.994212962963 8.55946180555555  14.7743055555556 8.34505208333333  C 14.5543981481481 8.13064236111111  14.4444444444444 7.87673611111111  14.4444444444444 7.58333333333333  C 14.4444444444444 6.38715277777778  14.0104166666667 5.36588541666667  13.1423611111111 4.51953125  C 12.2743055555556 3.67317708333333  11.2268518518519 3.25  10 3.25  C 8.77314814814815 3.25  7.72569444444444 3.67317708333333  6.85763888888889 4.51953125  C 5.98958333333333 5.36588541666667  5.55555555555556 6.38715277777778  5.55555555555556 7.58333333333333  L 5.55555555555556 13  Z " fill-rule="nonzero" fill="#bbbbbb" stroke="none" transform="matrix(1 0 0 1 38 228 )" />
  </g>
</svg>