<?xml version="1.0" encoding="utf-8"?>
<svg version="1.1" xmlns:xlink="http://www.w3.org/1999/xlink" width="40px" height="40px" xmlns="http://www.w3.org/2000/svg">
  <g transform="matrix(1 0 0 1 -1524 -1305 )">
    <path d="M 1544 1305  C 1555.2 1305  1564 1313.8  1564 1325  C 1564 1336.2  1555.2 1345  1544 1345  C 1532.8 1345  1524 1336.2  1524 1325  C 1524 1313.8  1532.8 1305  1544 1305  Z " fill-rule="nonzero" fill="#ffc220" stroke="none" />
    <path d="M 1544 1305.5  C 1554.92 1305.5  1563.5 1314.08  1563.5 1325  C 1563.5 1335.92  1554.92 1344.5  1544 1344.5  C 1533.08 1344.5  1524.5 1335.92  1524.5 1325  C 1524.5 1314.08  1533.08 1305.5  1544 1305.5  Z " stroke-width="1" stroke="#797979" fill="none" />
  </g>
</svg>