<?xml version="1.0" encoding="utf-8"?>
<svg version="1.1" xmlns:xlink="http://www.w3.org/1999/xlink" width="40px" height="40px" xmlns="http://www.w3.org/2000/svg">
  <g transform="matrix(1 0 0 1 -724 -1305 )">
    <path d="M 744 1305  C 755.2 1305  764 1313.8  764 1325  C 764 1336.2  755.2 1345  744 1345  C 732.8 1345  724 1336.2  724 1325  C 724 1313.8  732.8 1305  744 1305  Z " fill-rule="nonzero" fill="#ffc220" stroke="none" />
    <path d="M 744 1305.5  C 754.92 1305.5  763.5 1314.08  763.5 1325  C 763.5 1335.92  754.92 1344.5  744 1344.5  C 733.08 1344.5  724.5 1335.92  724.5 1325  C 724.5 1314.08  733.08 1305.5  744 1305.5  Z " stroke-width="1" stroke="#797979" fill="none" />
  </g>
</svg>