<?xml version="1.0" encoding="utf-8"?>
<svg version="1.1" xmlns:xlink="http://www.w3.org/1999/xlink" width="20px" height="24px" xmlns="http://www.w3.org/2000/svg">
  <g transform="matrix(1 0 0 1 -38 -547 )">
    <path d="M 5.55555555555556 7.63636363636364  L 5.55555555555556 10.9090909090909  L 14.4444444444444 10.9090909090909  L 14.4444444444444 7.63636363636364  C 14.4444444444444 6.43181818181818  14.0104166666667 5.40340909090909  13.1423611111111 4.55113636363636  C 12.2743055555556 3.69886363636364  11.2268518518519 3.27272727272727  10 3.27272727272727  C 8.77314814814815 3.27272727272727  7.72569444444444 3.69886363636364  6.85763888888889 4.55113636363636  C 5.98958333333333 5.40340909090909  5.55555555555556 6.43181818181818  5.55555555555556 7.63636363636364  Z M 19.5138888888889 11.3863636363636  C 19.837962962963 11.7045454545455  20 12.0909090909091  20 12.5454545454545  L 20 22.3636363636364  C 20 22.8181818181818  19.837962962963 23.2045454545455  19.5138888888889 23.5227272727273  C 19.1898148148148 23.8409090909091  18.7962962962963 24  18.3333333333333 24  L 1.66666666666667 24  C 1.2037037037037 24  0.810185185185185 23.8409090909091  0.486111111111111 23.5227272727273  C 0.162037037037037 23.2045454545455  0 22.8181818181818  0 22.3636363636364  L 0 12.5454545454545  C 0 12.0909090909091  0.162037037037037 11.7045454545455  0.486111111111111 11.3863636363636  C 0.810185185185185 11.0681818181818  1.2037037037037 10.9090909090909  1.66666666666667 10.9090909090909  L 2.22222222222222 10.9090909090909  L 2.22222222222222 7.63636363636364  C 2.22222222222222 5.54545454545454  2.98611111111111 3.75  4.51388888888889 2.25  C 6.04166666666667 0.75  7.87037037037037 0  10 0  C 12.1296296296296 0  13.9583333333333 0.75  15.4861111111111 2.25  C 17.0138888888889 3.75  17.7777777777778 5.54545454545454  17.7777777777778 7.63636363636364  L 17.7777777777778 10.9090909090909  L 18.3333333333333 10.9090909090909  C 18.7962962962963 10.9090909090909  19.1898148148148 11.0681818181818  19.5138888888889 11.3863636363636  Z " fill-rule="nonzero" fill="#bbbbbb" stroke="none" transform="matrix(1 0 0 1 38 547 )" />
  </g>
</svg>