<?xml version="1.0" encoding="utf-8"?>
<svg version="1.1" xmlns:xlink="http://www.w3.org/1999/xlink" width="120px" height="120px" xmlns="http://www.w3.org/2000/svg">
  <g transform="matrix(1 0 0 1 -222 -4750 )">
    <path d="M 223 4760  A 9 9 0 0 1 232 4751 L 332 4751  A 9 9 0 0 1 341 4760 L 341 4860  A 9 9 0 0 1 332 4869 L 232 4869  A 9 9 0 0 1 223 4860 L 223 4760  Z " fill-rule="nonzero" fill="#ffffff" stroke="none" />
    <path d="M 222.5 4760  A 9.5 9.5 0 0 1 232 4750.5 L 332 4750.5  A 9.5 9.5 0 0 1 341.5 4760 L 341.5 4860  A 9.5 9.5 0 0 1 332 4869.5 L 232 4869.5  A 9.5 9.5 0 0 1 222.5 4860 L 222.5 4760  Z " stroke-width="1" stroke-dasharray="3,1" stroke="#797979" fill="none" stroke-dashoffset="0.5" />
  </g>
</svg>