<?xml version="1.0" encoding="utf-8"?>
<svg version="1.1" xmlns:xlink="http://www.w3.org/1999/xlink" width="145px" height="145px" xmlns="http://www.w3.org/2000/svg">
  <g transform="matrix(1 0 0 1 -632 -293 )">
    <path d="M 704.5 293  C 745.1 293  777 324.9  777 365.5  C 777 406.1  745.1 438  704.5 438  C 663.9 438  632 406.1  632 365.5  C 632 324.9  663.9 293  704.5 293  Z " fill-rule="nonzero" fill="#ffffff" stroke="none" />
    <path d="M 704.5 293.5  C 744.82 293.5  776.5 325.18  776.5 365.5  C 776.5 405.82  744.82 437.5  704.5 437.5  C 664.18 437.5  632.5 405.82  632.5 365.5  C 632.5 325.18  664.18 293.5  704.5 293.5  Z " stroke-width="1" stroke="#797979" fill="none" />
  </g>
</svg>