<?xml version="1.0" encoding="utf-8"?>
<svg version="1.1" xmlns:xlink="http://www.w3.org/1999/xlink" width="60px" height="60px" xmlns="http://www.w3.org/2000/svg">
  <g transform="matrix(1 0 0 1 -522 -1418 )">
    <path d="M 44.140625 40.625  C 44.6354166666667 40.1302083333333  44.8828125 39.53125  44.8828125 38.828125  C 44.8828125 38.1510416666667  44.6354166666667 37.5651041666667  44.140625 37.0703125  L 37.0703125 30  L 44.140625 22.9296875  C 44.6354166666667 22.4348958333333  44.8828125 21.8489583333333  44.8828125 21.171875  C 44.8828125 20.46875  44.6354166666667 19.8697916666667  44.140625 19.375  L 40.625 15.859375  C 40.1302083333333 15.3645833333333  39.53125 15.1171875  38.828125 15.1171875  C 38.1510416666667 15.1171875  37.5651041666667 15.3645833333333  37.0703125 15.859375  L 30 22.9296875  L 22.9296875 15.859375  C 22.4348958333333 15.3645833333333  21.8489583333333 15.1171875  21.171875 15.1171875  C 20.46875 15.1171875  19.8697916666667 15.3645833333333  19.375 15.859375  L 15.859375 19.375  C 15.3645833333333 19.8697916666667  15.1171875 20.46875  15.1171875 21.171875  C 15.1171875 21.8489583333333  15.3645833333333 22.4348958333333  15.859375 22.9296875  L 22.9296875 30  L 15.859375 37.0703125  C 15.3645833333333 37.5651041666667  15.1171875 38.1510416666667  15.1171875 38.828125  C 15.1171875 39.53125  15.3645833333333 40.1302083333333  15.859375 40.625  L 19.375 44.140625  C 19.8697916666667 44.6354166666667  20.46875 44.8828125  21.171875 44.8828125  C 21.8489583333333 44.8828125  22.4348958333333 44.6354166666667  22.9296875 44.140625  L 30 37.0703125  L 37.0703125 44.140625  C 37.5651041666667 44.6354166666667  38.1510416666667 44.8828125  38.828125 44.8828125  C 39.53125 44.8828125  40.1302083333333 44.6354166666667  40.625 44.140625  L 44.140625 40.625  Z M 55.9765625 14.94140625  C 58.6588541666667 19.5377604166667  60 24.5572916666667  60 30  C 60 35.4427083333333  58.6588541666667 40.4622395833333  55.9765625 45.05859375  C 53.2942708333333 49.6549479166667  49.6549479166667 53.2942708333333  45.05859375 55.9765625  C 40.4622395833333 58.6588541666667  35.4427083333333 60  30 60  C 24.5572916666667 60  19.5377604166667 58.6588541666667  14.94140625 55.9765625  C 10.3450520833333 53.2942708333333  6.70572916666667 49.6549479166667  4.0234375 45.05859375  C 1.34114583333333 40.4622395833333  0 35.4427083333333  0 30  C 0 24.5572916666667  1.34114583333333 19.5377604166667  4.0234375 14.94140625  C 6.70572916666667 10.3450520833333  10.3450520833333 6.70572916666666  14.94140625 4.0234375  C 19.5377604166667 1.34114583333333  24.5572916666667 0  30 0  C 35.4427083333333 0  40.4622395833333 1.34114583333333  45.05859375 4.0234375  C 49.6549479166667 6.70572916666666  53.2942708333333 10.3450520833333  55.9765625 14.94140625  Z " fill-rule="nonzero" fill="#f60808" stroke="none" transform="matrix(1 0 0 1 522 1418 )" />
  </g>
</svg>