<?xml version="1.0" encoding="utf-8"?>
<svg version="1.1" xmlns:xlink="http://www.w3.org/1999/xlink" width="120px" height="120px" xmlns="http://www.w3.org/2000/svg">
  <g transform="matrix(1 0 0 1 -31 -4750 )">
    <path d="M 33 4760  A 8 8 0 0 1 41 4752 L 141 4752  A 8 8 0 0 1 149 4760 L 149 4860  A 8 8 0 0 1 141 4868 L 41 4868  A 8 8 0 0 1 33 4860 L 33 4760  Z " fill-rule="nonzero" fill="#ffffff" stroke="none" />
    <path d="M 32 4760  A 9 9 0 0 1 41 4751 L 141 4751  A 9 9 0 0 1 150 4760 L 150 4860  A 9 9 0 0 1 141 4869 L 41 4869  A 9 9 0 0 1 32 4860 L 32 4760  Z " stroke-width="2" stroke-dasharray="6,2" stroke="#bbbbbb" fill="none" />
  </g>
</svg>