<?xml version="1.0" encoding="utf-8"?>
<svg version="1.1" xmlns:xlink="http://www.w3.org/1999/xlink" width="43px" height="43px" xmlns="http://www.w3.org/2000/svg">
  <g transform="matrix(1 0 0 1 -740 -498 )">
    <path d="M 24.8313802083333 35.5813802083333  C 24.9993489583333 35.4134114583333  25.0833333333333 35.1987847222222  25.0833333333333 34.9375  L 25.0833333333333 29.5625  C 25.0833333333333 29.3012152777778  24.9993489583333 29.0865885416667  24.8313802083333 28.9186197916667  C 24.6634114583333 28.7506510416667  24.4487847222222 28.6666666666667  24.1875 28.6666666666667  L 18.8125 28.6666666666667  C 18.5512152777778 28.6666666666667  18.3365885416667 28.7506510416667  18.1686197916667 28.9186197916667  C 18.0006510416667 29.0865885416667  17.9166666666667 29.3012152777778  17.9166666666667 29.5625  L 17.9166666666667 34.9375  C 17.9166666666667 35.1987847222222  18.0006510416667 35.4134114583333  18.1686197916667 35.5813802083333  C 18.3365885416667 35.7493489583333  18.5512152777778 35.8333333333333  18.8125 35.8333333333333  L 24.1875 35.8333333333333  C 24.4487847222222 35.8333333333333  24.6634114583333 35.7493489583333  24.8313802083333 35.5813802083333  Z M 31.9000651041667 18.392578125  C 32.1333550347222 17.7020399305556  32.25 16.9461805555556  32.25 16.125  C 32.25 14.4826388888889  31.7320963541667 12.9615885416667  30.6962890625 11.5618489583333  C 29.6604817708333 10.162109375  28.3680555555556 9.07964409722222  26.8190104166667 8.314453125  C 25.2699652777778 7.54926215277778  23.68359375 7.16666666666667  22.0598958333333 7.16666666666667  C 17.5247395833333 7.16666666666667  14.0627170138889 9.154296875  11.673828125 13.1295572916667  C 11.3938802083333 13.5774739583333  11.4685329861111 13.9694010416667  11.8977864583333 14.3053385416667  L 15.5930989583333 17.1048177083333  C 15.7237413194444 17.216796875  15.9010416666667 17.2727864583333  16.125 17.2727864583333  C 16.4236111111111 17.2727864583333  16.6569010416667 17.1608072916667  16.8248697916667 16.9368489583333  C 17.8140190972222 15.6677517361111  18.6165364583333 14.8092447916667  19.232421875 14.361328125  C 19.8669704861111 13.9134114583333  20.6694878472222 13.689453125  21.6399739583333 13.689453125  C 22.5358072916667 13.689453125  23.3336588541667 13.9320746527778  24.0335286458333 14.4173177083333  C 24.7333984375 14.9025607638889  25.0833333333333 15.453125  25.0833333333333 16.0690104166667  C 25.0833333333333 16.7782118055556  24.8967013888889 17.3474392361111  24.5234375 17.7766927083333  C 24.1501736111111 18.2059461805556  23.515625 18.6258680555556  22.6197916666667 19.0364583333333  C 21.4440104166667 19.5590277777778  20.3662109375 20.3662109375  19.3863932291667 21.4580078125  C 18.4065755208333 22.5498046875  17.9166666666667 23.7209201388889  17.9166666666667 24.9713541666667  L 17.9166666666667 25.9791666666667  C 17.9166666666667 26.2404513888889  18.0006510416667 26.455078125  18.1686197916667 26.623046875  C 18.3365885416667 26.791015625  18.5512152777778 26.875  18.8125 26.875  L 24.1875 26.875  C 24.4487847222222 26.875  24.6634114583333 26.791015625  24.8313802083333 26.623046875  C 24.9993489583333 26.455078125  25.0833333333333 26.2404513888889  25.0833333333333 25.9791666666667  C 25.0833333333333 25.6245659722222  25.2839626736111 25.1626519097222  25.6852213541667 24.5934244791667  C 26.0864800347222 24.0241970486111  26.5950520833333 23.5622829861111  27.2109375 23.2076822916667  C 27.8081597222222 22.8717447916667  28.2654079861111 22.6057942708333  28.5826822916667 22.4098307291667  C 28.8999565972222 22.2138671875  29.3292100694444 21.8872612847222  29.8704427083333 21.4300130208333  C 30.4116753472222 20.9727647569444  30.8269314236111 20.5248480902778  31.1162109375 20.0862630208333  C 31.4054904513889 19.6476779513889  31.6667751736111 19.0831163194444  31.9000651041667 18.392578125  Z M 40.1165364583333 10.7080078125  C 42.0388454861111 14.0020616319444  43 17.5993923611111  43 21.5  C 43 25.4006076388889  42.0388454861111 28.9979383680556  40.1165364583333 32.2919921875  C 38.1942274305556 35.5860460069444  35.5860460069444 38.1942274305556  32.2919921875 40.1165364583333  C 28.9979383680556 42.0388454861111  25.4006076388889 43  21.5 43  C 17.5993923611111 43  14.0020616319444 42.0388454861111  10.7080078125 40.1165364583333  C 7.41395399305556 38.1942274305556  4.80577256944444 35.5860460069444  2.88346354166667 32.2919921875  C 0.961154513888889 28.9979383680556  0 25.4006076388889  0 21.5  C 0 17.5993923611111  0.961154513888889 14.0020616319444  2.88346354166667 10.7080078125  C 4.80577256944444 7.41395399305556  7.41395399305556 4.80577256944444  10.7080078125 2.88346354166667  C 14.0020616319444 0.961154513888885  17.5993923611111 0  21.5 0  C 25.4006076388889 0  28.9979383680556 0.961154513888885  32.2919921875 2.88346354166667  C 35.5860460069444 4.80577256944444  38.1942274305556 7.41395399305556  40.1165364583333 10.7080078125  Z " fill-rule="nonzero" fill="#ffc220" stroke="none" transform="matrix(1 0 0 1 740 498 )" />
  </g>
</svg>