<?xml version="1.0" encoding="utf-8"?>
<svg version="1.1" xmlns:xlink="http://www.w3.org/1999/xlink" width="300px" height="170px" xmlns="http://www.w3.org/2000/svg">
  <g transform="matrix(1 0 0 1 -220 -136 )">
    <path d="M 220 136  L 520 136  L 520 306  L 220 306  L 220 136  " fill-rule="nonzero" fill="#cccccc" stroke="none" />
    <path d="M 232 148  L 508 148  L 508 294  L 232 294  L 232 148  " fill-rule="nonzero" fill="#ffffff" stroke="none" />
    <path d="M 388.75 187  C 381.61 187  376 181.39  376 174.25  C 376 167.11  381.61 161.5  388.75 161.5  C 395.89 161.5  401.5 167.11  401.5 174.25  C 401.5 181.39  395.89 187  388.75 187  " fill-rule="nonzero" fill="#cccccc" stroke="none" />
    <path d="M 237 290  L 237 214.65  L 303.75 180.4  L 397.2 243.42  L 450.6 200.95  L 504 243.42  L 504 290  L 237 290  " fill-rule="nonzero" fill="#169bd5" stroke="none" />
  </g>
</svg>