<?xml version="1.0" encoding="utf-8"?>
<svg version="1.1" xmlns:xlink="http://www.w3.org/1999/xlink" width="85px" height="85px" xmlns="http://www.w3.org/2000/svg">
  <g transform="matrix(1 0 0 1 -1275 -1341 )">
    <path d="M 15.4545454545455 61.8181818181818  L 23.1818181818182 61.8181818181818  L 23.1818181818182 69.5454545454545  L 15.4545454545455 69.5454545454545  L 15.4545454545455 61.8181818181818  Z M 15.4545454545455 15.4545454545454  L 23.1818181818182 15.4545454545454  L 23.1818181818182 23.1818181818182  L 15.4545454545455 23.1818181818182  L 15.4545454545455 15.4545454545454  Z M 61.8181818181818 15.4545454545454  L 69.5454545454545 15.4545454545454  L 69.5454545454545 23.1818181818182  L 61.8181818181818 23.1818181818182  L 61.8181818181818 15.4545454545454  Z M 8 54  L 8 77  L 31 77  L 31 54  L 8 54  Z M 8 8  L 8 31  L 31 31  L 31 8  L 8 8  Z M 54 8  L 54 31  L 77 31  L 77 8  L 54 8  Z M 0 46  L 39 46  L 39 85  L 0 85  L 0 46  Z M 61.8181818181818 77.2727272727273  L 69.5454545454545 77.2727272727273  L 69.5454545454545 85  L 61.8181818181818 85  L 61.8181818181818 77.2727272727273  Z M 77.2727272727273 77.2727272727273  L 85 77.2727272727273  L 85 85  L 77.2727272727273 85  L 77.2727272727273 77.2727272727273  Z M 77.2727272727273 46.3636363636364  L 85 46.3636363636364  L 85 69  L 61.8181818181818 69  L 61.8181818181818 61.8181818181818  L 54 61.8181818181818  L 54 85  L 46 85  L 46 46  L 69.5454545454545 46  L 69.5454545454545 54.0909090909091  L 77.2727272727273 54.0909090909091  L 77.2727272727273 46.3636363636364  Z M 0 0  L 39 0  L 39 39  L 0 39  L 0 0  Z M 46 0  L 85 0  L 85 39  L 46 39  L 46 0  Z " fill-rule="nonzero" fill="#000000" stroke="none" transform="matrix(1 0 0 1 1275 1341 )" />
  </g>
</svg>