<?xml version="1.0" encoding="utf-8"?>
<svg version="1.1" xmlns:xlink="http://www.w3.org/1999/xlink" width="350px" height="170px" xmlns="http://www.w3.org/2000/svg">
  <g transform="matrix(1 0 0 1 -428 -35 )">
    <path d="M 428 35  L 778 35  L 778 205  L 428 205  L 428 35  " fill-rule="nonzero" fill="#cccccc" stroke="none" />
    <path d="M 440 47  L 766 47  L 766 193  L 440 193  L 440 47  " fill-rule="nonzero" fill="#ffffff" stroke="none" />
    <path d="M 622.75 86  C 615.61 86  610 80.39  610 73.25  C 610 66.11  615.61 60.5  622.75 60.5  C 629.89 60.5  635.5 66.11  635.5 73.25  C 635.5 80.39  629.89 86  622.75 86  " fill-rule="nonzero" fill="#cccccc" stroke="none" />
    <path d="M 445 189  L 445 113.65  L 524.25 79.4  L 635.2 149.074285714286  L 698.6 99.95  L 762 149.074285714286  L 762 189  L 445 189  " fill-rule="nonzero" fill="#169bd5" stroke="none" />
  </g>
</svg>