<?xml version="1.0" encoding="utf-8"?>
<svg version="1.1" xmlns:xlink="http://www.w3.org/1999/xlink" width="43px" height="43px" xmlns="http://www.w3.org/2000/svg">
  <g transform="matrix(1 0 0 1 -3009 -500 )">
    <path d="M 24.8313802083333 11.001953125  C 24.9993489583333 11.169921875  25.0833333333333 11.3845486111111  25 11.6458333333333  L 25 24.1875  C 25.0833333333333 24.4487847222222  24.9993489583333 24.6634114583333  24.8313802083333 24.8313802083333  C 24.6634114583333 24.9993489583333  24.4487847222222 25.0833333333333  24.1875 25.0833333333333  L 15.2291666666667 25.0833333333333  C 14.9678819444444 25.0833333333333  14.7532552083333 24.9993489583333  14.5852864583333 24.8313802083333  C 14.4173177083333 24.6634114583333  14.3333333333333 24.4487847222222  14.3333333333333 24.1875  L 14.3333333333333 22.3958333333333  C 14.3333333333333 22.1345486111111  14.4173177083333 21.919921875  14.5852864583333 21.751953125  C 14.7532552083333 21.583984375  14.9678819444444 21.5  15.2291666666667 21.5  L 21.5 21.5  L 21.5 11.6458333333333  C 21.5 11.3845486111111  21.583984375 11.169921875  21.751953125 11.001953125  C 21.919921875 10.833984375  22.1345486111111 10.75  22.3958333333333 10.75  L 24.1875 10.75  C 24.4487847222222 10.75  24.6634114583333 10.833984375  24.8313802083333 11.001953125  Z M 34.685546875 29.142578125  C 36.0479600694444 26.8096788194444  36.7291666666667 24.2621527777778  36.7291666666667 21.5  C 36.7291666666667 18.7378472222222  36.0479600694444 16.1903211805556  34.685546875 13.857421875  C 33.3231336805556 11.5245225694444  31.4754774305556 9.67686631944444  29.142578125 8.314453125  C 26.8096788194444 6.95203993055556  24.2621527777778 6.27083333333333  21.5 6.27083333333333  C 18.7378472222222 6.27083333333333  16.1903211805556 6.95203993055556  13.857421875 8.314453125  C 11.5245225694444 9.67686631944444  9.67686631944444 11.5245225694444  8.314453125 13.857421875  C 6.95203993055556 16.1903211805556  6.27083333333333 18.7378472222222  6.27083333333333 21.5  C 6.27083333333333 24.2621527777778  6.95203993055556 26.8096788194444  8.314453125 29.142578125  C 9.67686631944444 31.4754774305556  11.5245225694444 33.3231336805556  13.857421875 34.685546875  C 16.1903211805556 36.0479600694444  18.7378472222222 36.7291666666667  21.5 36.7291666666667  C 24.2621527777778 36.7291666666667  26.8096788194444 36.0479600694444  29.142578125 34.685546875  C 31.4754774305556 33.3231336805556  33.3231336805556 31.4754774305556  34.685546875 29.142578125  Z M 40.1165364583333 10.7080078125  C 42.0388454861111 14.0020616319444  43 17.5993923611111  43 21.5  C 43 25.4006076388889  42.0388454861111 28.9979383680556  40.1165364583333 32.2919921875  C 38.1942274305556 35.5860460069444  35.5860460069444 38.1942274305556  32.2919921875 40.1165364583333  C 28.9979383680556 42.0388454861111  25.4006076388889 43  21.5 43  C 17.5993923611111 43  14.0020616319444 42.0388454861111  10.7080078125 40.1165364583333  C 7.41395399305556 38.1942274305556  4.80577256944444 35.5860460069444  2.88346354166667 32.2919921875  C 0.961154513888889 28.9979383680556  0 25.4006076388889  0 21.5  C 0 17.5993923611111  0.961154513888889 14.0020616319444  2.88346354166667 10.7080078125  C 4.80577256944444 7.41395399305556  7.41395399305556 4.80577256944444  10.7080078125 2.88346354166667  C 14.0020616319444 0.961154513888885  17.5993923611111 0  21.5 0  C 25.4006076388889 0  28.9979383680556 0.961154513888885  32.2919921875 2.88346354166667  C 35.5860460069444 4.80577256944444  38.1942274305556 7.41395399305556  40.1165364583333 10.7080078125  Z " fill-rule="nonzero" fill="#080707" stroke="none" fill-opacity="0.803921568627451" transform="matrix(1 0 0 1 3009 500 )" />
  </g>
</svg>