<?xml version="1.0" encoding="utf-8"?>
<svg version="1.1" xmlns:xlink="http://www.w3.org/1999/xlink" width="60px" height="60px" xmlns="http://www.w3.org/2000/svg">
  <g transform="matrix(1 0 0 1 -2870 -347 )">
    <path d="M 49.453125 25.4296875  C 49.921875 24.9609375  50.15625 24.375  50.15625 23.671875  C 50.15625 22.9427083333333  49.921875 22.34375  49.453125 21.875  L 45.8984375 18.359375  C 45.4036458333333 17.8645833333333  44.8177083333333 17.6171875  44.140625 17.6171875  C 43.4635416666667 17.6171875  42.8776041666667 17.8645833333333  42.3828125 18.359375  L 26.4453125 34.2578125  L 17.6171875 25.4296875  C 17.1223958333333 24.9348958333333  16.5364583333333 24.6875  15.859375 24.6875  C 15.1822916666667 24.6875  14.5963541666667 24.9348958333333  14.1015625 25.4296875  L 10.546875 28.9453125  C 10.078125 29.4140625  9.84375 30.0130208333333  9.84375 30.7421875  C 9.84375 31.4453125  10.078125 32.03125  10.546875 32.5  L 24.6875 46.640625  C 25.1822916666667 47.1354166666667  25.7682291666667 47.3828125  26.4453125 47.3828125  C 27.1484375 47.3828125  27.7473958333333 47.1354166666667  28.2421875 46.640625  L 49.453125 25.4296875  Z M 55.9765625 14.94140625  C 58.6588541666667 19.5377604166667  60 24.5572916666667  60 30  C 60 35.4427083333333  58.6588541666667 40.4622395833333  55.9765625 45.05859375  C 53.2942708333333 49.6549479166667  49.6549479166667 53.2942708333333  45.05859375 55.9765625  C 40.4622395833333 58.6588541666667  35.4427083333333 60  30 60  C 24.5572916666667 60  19.5377604166667 58.6588541666667  14.94140625 55.9765625  C 10.3450520833333 53.2942708333333  6.70572916666667 49.6549479166667  4.0234375 45.05859375  C 1.34114583333333 40.4622395833333  0 35.4427083333333  0 30  C 0 24.5572916666667  1.34114583333333 19.5377604166667  4.0234375 14.94140625  C 6.70572916666667 10.3450520833333  10.3450520833333 6.70572916666666  14.94140625 4.0234375  C 19.5377604166667 1.34114583333333  24.5572916666667 0  30 0  C 35.4427083333333 0  40.4622395833333 1.34114583333333  45.05859375 4.0234375  C 49.6549479166667 6.70572916666666  53.2942708333333 10.3450520833333  55.9765625 14.94140625  Z " fill-rule="nonzero" fill="#52df2b" stroke="none" transform="matrix(1 0 0 1 2870 347 )" />
  </g>
</svg>